<?xml version="1.0" encoding="utf-8"?>
<!-- Generator: Adobe Illustrator 16.0.0, SVG Export Plug-In . SVG Version: 6.00 Build 0)  -->
<!DOCTYPE svg PUBLIC "-//W3C//DTD SVG 1.1//EN" "http://www.w3.org/Graphics/SVG/1.1/DTD/svg11.dtd">
<svg version="1.1" id="Layer_1" xmlns="http://www.w3.org/2000/svg" xmlns:xlink="http://www.w3.org/1999/xlink" x="0px" y="0px"
	 width="612px" height="792px" viewBox="0 0 612 792" enable-background="new 0 0 612 792" xml:space="preserve">
<path id="path29_1_" display="none" fill="#010101" d="M7.737,475.777c0-63.56,21.504-119.623,65.187-169.229
	c15.805-18.332,28.551-27.175,37.31-27.175c3.032,0,6.373,0.674,8.731,3.06c2.358,2.386,4.042,4.744,4.042,8.169
	c0,4.745-5.699,11.903-16.816,23.104c-45.367,44.188-68.218,98.539-68.218,163.781c0,72.373,23.862,130.819,70.576,175.684
	c9.405,8.842,14.458,15.974,14.458,21.756c0,3.062-1.685,6.457-4.042,8.845c-2.358,2.387-5.699,4.069-8.731,4.069
	c-11.089,0-26.221-12.914-46.041-38.403C25.873,601.854,7.737,544.078,7.737,475.777L7.737,475.777L7.737,475.777z"/>
<g>
	<path fill="#F15B26" d="M557.764,550.793c-8.799,28.566-23.438,54.762-42.641,77.582c-50.68,60.211-132.943,96.84-222.69,90.973
		C164.84,711.01,65.766,619.553,55.38,507.768c-7.209-41.965-6.298-93.7,10.989-155.581c0,0,0.618,21.442,7.626,47.002
		c7.199,26.313,21.324,57.114,48.721,73.364c0,0-17.659-101.618,61.767-186.246c20.582-21.992,47.726-42.814,83.4-60.404
		c170.021-83.886,70.97-171.697,67.391-174.834c4.03,1.402,94.629,35.271,71.368,189.595c-1.735,11.611-2.875,21.954-3.422,31.196
		c-6.92,117.028,75.685,64.313,105.162,205.976c0,0,34.041-33.348,18.133-89.885C526.516,387.955,573.125,471.314,557.764,550.793
		L557.764,550.793z"/>
	<path fill="#F79323" d="M492.188,588.975c-3.762,19.537-11.829,37.904-23.401,54.351c-30.539,43.389-85.312,73.319-148.965,75.604
		c-90.5,3.246-168.003-50.553-184.826-123.924c-8.646-27.316-12.408-61.668-5.509-103.867c0,0,2.26,14.168,9.367,30.627
		c7.306,16.943,19.867,36.39,40.53,45.271c0,0-21.077-66.131,27.613-127.68c12.611-15.99,29.941-31.656,53.548-45.769
		c112.503-67.287,35.327-118.672,32.54-120.504c2.957,0.652,69.592,16.868,66.364,120.747c-0.236,7.813-0.154,14.746,0.246,20.91
		c5.094,78.035,58.731,37.418,91.534,129.276c0,0,21.115-24.44,5.109-60.815C456.338,483.201,496.234,535.242,492.188,588.975
		L492.188,588.975z"/>
	<path fill="#FAEB21" d="M204.971,644.746c3.454,12.166,9.564,23.395,17.779,33.256c21.678,26.01,57.914,42.426,98.235,40.979
		c57.319-2.057,103.289-39.545,109.858-86.637c3.953-17.641,4.433-39.5-2.254-65.832c0,0-0.645,9.047-4.225,19.763
		c-3.681,11.028-10.537,23.879-23.094,30.426c0,0,9.657-42.713-24.482-79.367c-8.846-9.523-20.654-18.629-36.338-26.467
		c-74.754-37.383-28.857-73.33-27.199-74.613c-1.832,0.545-43.013,13.809-35.238,79.254c0.58,4.924,0.912,9.303,0.998,13.213
		c1.093,49.506-35.019,26.293-50.66,85.785c0,0-14.684-14.479-6.584-38.172C221.769,576.332,199.452,611.002,204.971,644.746
		L204.971,644.746z"/>
</g>
<path id="path31_1_" display="none" fill="#010101" d="M598.817,502.833c0,63.559-21.505,119.621-65.188,169.227
	c-15.806,18.359-28.578,27.177-37.31,27.177c-3.032,0-6.372-0.674-8.73-3.062c-2.356-2.387-4.043-5.783-4.043-8.844
	c0-4.744,5.729-11.902,16.816-22.43c45.366-44.189,68.218-98.539,68.218-163.781c0-72.373-23.862-130.82-70.576-175.681
	c-9.403-8.843-14.458-15.974-14.458-21.757c0-3.06,1.687-6.457,4.043-8.843c2.358-2.386,5.729-4.071,8.73-4.071
	c10.415,0,26.221,12.914,46.041,38.404C579.672,377.796,598.817,435.569,598.817,502.833L598.817,502.833L598.817,502.833z"/>
<path id="path37_1_" display="none" fill="#010101" d="M452.545,753.987h-274.98c-8.422,0-16.816-6.794-16.816-17.015
	c0-9.348,6.738-17.012,16.816-17.012h274.979c8.422,0,16.814,6.793,16.814,17.012C469.389,747.166,462.65,753.987,452.545,753.987
	L452.545,753.987z"/>
<path id="Shape" display="none" fill="#010101" d="M222.856,283.458c0,0,35.259,21.704,35.259,60.954
	c0,67.859-103.697,143.61-103.697,213.759c0,76.174,65.32,126.066,128.603,140.829c8.793,1.831,12.953-7.4,1.561-9.688
	c-25.425-5.53-54.449-35.552-54.449-82.659c0-43.409,46.649-59.544,65.84-80.789c19.191-21.706,14.51-48.94,3.637-56.799
	c-11.391-7.858-3.637-18.463,16.591-5.989c20.227,12.476,37.336,36.01,31.099,58.629c-7.797,28.607,2.601,45.238,19.189,47.105
	c16.59,1.836,35.259-5.528,33.697-19.378c-2.076-13.844-11.391-28.605-5.716-28.605c11.914,0,37.34,26.321,37.34,67.855
	c0,41.54-38.898,70.645-50.292,81.704c-7.275,6.45,2.079,15.222,11.912,11.104c4.68-1.834,15.031-7.401,21.79-11.561
	c30.58-19.378,78.314-58.628,78.314-131.598c0-76.174-32.661-110.351-65.319-138.501c-32.663-28.609-40.979-21.248-31.624-7.4
	c27.987,42.492,10.875,56.794-9.312,56.794c-23.867,0-25.425-48.022-34.738-84.947c-20.793-81.781-103.741-95.627-119.289-96.543
	C218.222,268.2,204.23,276.515,222.856,283.458L222.856,283.458z"/>
</svg>
